<?xml version="1.0" encoding="UTF-8" standalone="no"?>
<!DOCTYPE svg PUBLIC "-//W3C//DTD SVG 1.1//EN"
"http://www.w3.org/Graphics/SVG/1.1/DTD/svg11.dtd">
<svg viewBox="0 0 1286 909" version="1.1" xmlns="http://www.w3.org/2000/svg" xmlns:xlink="http://www.w3.org/1999/xlink">
<defs>
<clipPath id="c0_1"><path d="M0,846.8V737.3H1286.4V846.8Z" /></clipPath>
<style type="text/css"><![CDATA[
.g0_1{
fill: none;
stroke: #000000;
stroke-width: 0.15277778;
stroke-linecap: butt;
stroke-linejoin: miter;
stroke-miterlimit: 1;
}
.g1_1{
}
.g2_1{
fill: none;
stroke: #000000;
stroke-width: 0.7638889;
stroke-linecap: butt;
stroke-linejoin: miter;
}
.g3_1{
fill: #FFFFFF;
}
.g4_1{
fill: none;
stroke: #000000;
stroke-width: 0.15277778;
stroke-linecap: butt;
stroke-linejoin: round;
}
.g5_1{
fill: #FFFFFF;
stroke: #000000;
stroke-width: 0.15277778;
stroke-linecap: butt;
stroke-linejoin: miter;
}
.g6_1{
fill: none;
stroke: #000000;
stroke-width: 1.6805556;
stroke-linecap: butt;
stroke-linejoin: miter;
}
]]></style>
</defs>
<path d="M21.7,169.4H40.9m0,0H314.7m0,0h46.9m0,0h101m0,0h78.8m0,0h89.9m0,0h45.5m0,0H778.9m0,0h78.5m0,0h90.3m0,0h45.5m0,0h101.9m0,0h78.8m0,0h86.5M21.7,195.6H40.9m0,0H68.4m0,0H314.7m0,0h46.9m0,0h101m0,0h78.8m0,0h89.9m0,0h45.5m0,0H778.9m0,0h78.5m0,0h90.3m0,0h45.5m0,0h101.9m0,0h78.8m0,0h86.5M21.7,221.5H40.9m0,0H68.4m0,0H314.7m0,0H631.3m0,0H947.7m0,0h312.7M21.7,247.5H40.9m0,0H68.4m0,0H314.7m0,0h46.9m0,0H527.4m0,0H631.3m0,0h45.5m0,0H843.9m0,0H947.7m0,0h45.5m0,0h167m0,0h100.2m-945.7,33h46.9m0,0H527.4m0,0H631.3m0,0h45.5m0,0H843.9m0,0H947.7m0,0h45.5m0,0h167m0,0h100.2M21.7,306.6H40.9m0,0H314.7m0,0h46.9m0,0H527.4m0,0H631.3m0,0h45.5m0,0H843.9m0,0H947.7m0,0h45.5m0,0h167m0,0h100.2M21.7,339.8H40.9m0,0H73m0,0H263.2m0,0h51.5m0,0h46.9m0,0H527.4m0,0H631.3m0,0h45.5m0,0H843.9m0,0H947.7m0,0h45.5m0,0h167m0,0h100.2M21.7,370H40.9m0,0H73m0,0H263.2m0,0h51.5m0,0h46.9m0,0H527.4m0,0H631.3m0,0h45.5m0,0H843.9m0,0H947.7m0,0h45.5m0,0h167m0,0h100.2M21.7,400.4H40.9m0,0H73m0,0H263.2m0,0h51.5m0,0h46.9m0,0H527.4m0,0H631.3m0,0h45.5m0,0H843.9m0,0H947.7m0,0h45.5m0,0h167m0,0h100.2M21.7,430.7H40.9m0,0H73m0,0H263.2m0,0h51.5m0,0h46.9m0,0H527.4m0,0H631.3m0,0h45.5m0,0H843.9m0,0H947.7m0,0h45.5m0,0h167m0,0h100.2M21.7,461.1H40.9m0,0H73m0,0H263.2m0,0h51.5m0,0h46.9m0,0H527.4m0,0H631.3m0,0h45.5m0,0H843.9m0,0H947.7m0,0h45.5m0,0h167m0,0h100.2M21.7,491.3H40.9m0,0H73m0,0H263.2m0,0h51.5m0,0h46.9m0,0H527.4m0,0H631.3m0,0h45.5m0,0H843.9m0,0H947.7m0,0h45.5m0,0h167m0,0h100.2M21.7,521.7H40.9m0,0H73m0,0H263.2m0,0h51.5m0,0h46.9m0,0H527.4m0,0H631.3m0,0h45.5m0,0H843.9m0,0H947.7m0,0h45.5m0,0h167m0,0h100.2M21.7,552H40.9m0,0H73m0,0H263.2m0,0h51.5m0,0h46.9m0,0H527.4m0,0H631.3m0,0h45.5m0,0H843.9m0,0H947.7m0,0h45.5m0,0h167m0,0h100.2M21.7,582.4H40.9m0,0H73m0,0H263.2m0,0h51.5m0,0h46.9m0,0H527.4m0,0H631.3m0,0h45.5m0,0H843.9m0,0H947.7m0,0h45.5m0,0h167m0,0h100.2M21.7,612.6H40.9m0,0H73m0,0H263.2m0,0h51.5m0,0h46.9m0,0H527.4m0,0H631.3m0,0h45.5m0,0H843.9m0,0H947.7m0,0h45.5m0,0h167m0,0h100.2M21.7,643H40.9m0,0H73m0,0H263.2m0,0h51.5m0,0h46.9m0,0H527.4m0,0H631.3m0,0h45.5m0,0H843.9m0,0H947.7m0,0h45.5m0,0h167m0,0h100.2M21.7,673.3H40.9m0,0H73m0,0H263.2m0,0h51.5m0,0h46.9m0,0H527.4m0,0H631.3m0,0h45.5m0,0H843.9m0,0H947.7m0,0h45.5m0,0h167m0,0h100.2" class="g0_1" />
<path fill-rule="evenodd" d="M527.4,699.9l.1,.9H315.6l-.9,-.9l.2,-.8H527.4v.8Z" class="g1_1" />
<path fill-rule="evenodd" d="M631.3,699.9l.1,.9h-104v-.9l.1,-.8H631.3v.8Z" class="g1_1" />
<path fill-rule="evenodd" d="M843.9,699.9l.2,.9H631.3v-.9l.1,-.8H843.9v.8Z" class="g1_1" />
<path fill-rule="evenodd" d="M947.7,699.9l.1,.9H843.9v-.9l.2,-.8H947.7v.8Z" class="g1_1" />
<path fill-rule="evenodd" d="M1160.2,699.9l.1,.9H947.7v-.9l.1,-.8h212.4v.8Z" class="g1_1" />
<path fill-rule="evenodd" d="M1260.4,699.9l-.7,.9h-99.5v-.9l.1,-.8h100.1v.8Z" class="g1_1" />
<path d="M21.7,725.2h293" class="g0_1" />
<path fill-rule="evenodd" d="M1260.4,725.8l.9,1H314l.7,-1l.9,-.7h944.1l.7,.7Z" class="g1_1" />
<path d="M21.7,195.6V169.4m0,52.1V195.6m0,51.9v-26m0,85.1V247.5m0,92.3V306.6m0,63.4V339.8m0,60.6V370m0,60.7V400.4m0,60.7V430.7m0,60.6V461.1m0,60.6V491.3m0,60.7V521.7m0,60.7V552m0,60.6V582.4m0,60.6V612.6m0,60.7V643m0,82.2V673.3m293,-477.7V169.4m0,52.1V195.6m0,51.9v-26m0,59v-33m0,59.1V280.5m0,59.3V306.6m0,63.4V339.8m0,60.6V370m0,60.7V400.4m0,60.7V430.7m0,60.6V461.1m0,60.6V491.3m0,60.7V521.7m0,60.7V552m0,60.6V582.4m0,60.6V612.6m0,60.7V643m0,56.9V673.3" class="g0_1" />
<path fill-rule="evenodd" d="M314.7,699.9l.9,.9v24.3l-.9,.7H314V699.1l.7,.8Z" class="g1_1" />
<path d="M361.6,280.5v-33m0,59.1V280.5m0,59.3V306.6m0,63.4V339.8m0,60.6V370m0,60.7V400.4m0,60.7V430.7m0,60.6V461.1m0,60.6V491.3m0,60.7V521.7m0,60.7V552m0,60.6V582.4m0,60.6V612.6m0,60.7V643M527.4,280.5v-33m0,59.1V280.5m0,59.3V306.6m0,63.4V339.8m0,60.6V370m0,60.7V400.4m0,60.7V430.7m0,60.6V461.1m0,60.6V491.3m0,60.7V521.7m0,60.7V552m0,60.6V582.4m0,60.6V612.6m0,60.7V643m0,56.9V673.3M631.3,195.6V169.4m0,52.1V195.6m0,51.9v-26m0,59v-33m0,59.1V280.5m0,59.3V306.6m0,63.4V339.8m0,60.6V370m0,60.7V400.4m0,60.7V430.7m0,60.6V461.1m0,60.6V491.3m0,60.7V521.7m0,60.7V552m0,60.6V582.4m0,60.6V612.6m0,60.7V643m0,56.9V673.3M676.8,280.5v-33m0,59.1V280.5m0,59.3V306.6m0,63.4V339.8m0,60.6V370m0,60.7V400.4m0,60.7V430.7m0,60.6V461.1m0,60.6V491.3m0,60.7V521.7m0,60.7V552m0,60.6V582.4m0,60.6V612.6m0,60.7V643M843.9,280.5v-33m0,59.1V280.5m0,59.3V306.6m0,63.4V339.8m0,60.6V370m0,60.7V400.4m0,60.7V430.7m0,60.6V461.1m0,60.6V491.3m0,60.7V521.7m0,60.7V552m0,60.6V582.4m0,60.6V612.6m0,60.7V643m0,56.9V673.3M947.7,195.6V169.4m0,52.1V195.6m0,51.9v-26m0,59v-33m0,59.1V280.5m0,59.3V306.6m0,63.4V339.8m0,60.6V370m0,60.7V400.4m0,60.7V430.7m0,60.6V461.1m0,60.6V491.3m0,60.7V521.7m0,60.7V552m0,60.6V582.4m0,60.6V612.6m0,60.7V643m0,56.9V673.3M993.2,280.5v-33m0,59.1V280.5m0,59.3V306.6m0,63.4V339.8m0,60.6V370m0,60.7V400.4m0,60.7V430.7m0,60.6V461.1m0,60.6V491.3m0,60.7V521.7m0,60.7V552m0,60.6V582.4m0,60.6V612.6m0,60.7V643m167,-362.5v-33m0,59.1V280.5m0,59.3V306.6m0,63.4V339.8m0,60.6V370m0,60.7V400.4m0,60.7V430.7m0,60.6V461.1m0,60.6V491.3m0,60.7V521.7m0,60.7V552m0,60.6V582.4m0,60.6V612.6m0,60.7V643m0,56.9V673.3M1260.4,195.6V169.4m0,52.1V195.6m0,51.9v-26m0,59v-33m0,59.1V280.5m0,59.3V306.6m0,63.4V339.8m0,60.6V370m0,60.7V400.4m0,60.7V430.7m0,60.6V461.1m0,60.6V491.3m0,60.7V521.7m0,60.7V552m0,60.6V582.4m0,60.6V612.6m0,60.7V643m0,56.9V673.3" class="g0_1" />
<path fill-rule="evenodd" d="M1260.4,699.9l.9,-.8v27.7l-.9,-1l-.7,-.7V700.8l.7,-.9Z" class="g1_1" />
<g clip-path="url(#c0_1)">
<path d="M314.9,737.3H731.8m355.1,0H1261M314.9,761.6H419.2m0,0H554.3m0,0H731.8M419.2,782.4H554.3M419.2,803.2H554.3m0,0H731.8M419.2,823.9H554.3M314.9,846.8H419.2m0,0H554.3m0,0H731.8m355.1,0H1261M314.9,761.6V737.3m0,44.9V761.6m0,41.4V782.2m0,41.6V803m0,43.8v-23m239.4,.1V803.2m0,43.6V823.9M731.8,761.6V737.3m0,44.9V761.6m0,41.6v-21m0,41.6V803.2m0,43.6v-23m355.1,-62.4V737.3m0,44.9V761.4m0,41.6V782.2m0,41.6V803m0,43.8v-23M1261,761.4V737.3m0,44.9V761.4m0,41.6V782.2m0,41.6V803m0,43.8v-23" class="g0_1" />
</g>
<path d="M1131,754.1h86.2" class="g2_1" />
<path fill-rule="evenodd" d="M13.6,154.9H296.1V0H13.6V154.9Z" class="g3_1" />
<image preserveAspectRatio="none" x="14" y="0" width="235" height="121" xlink:href="img/1.png" />
<path d="M623.6,61h314M340.7,870.5h759.6" class="g4_1" />
<path fill-rule="evenodd" d="M258.2,126.3h23.1V99.9H258.2v26.4Z" class="g5_1" />
<path fill-rule="evenodd" d="M143.6,126.3h23.1V99.9H143.6v26.4Z" class="g5_1" />
<path fill-rule="evenodd" d="M166.5,126.3h23.1V99.9H166.5v26.4Z" class="g5_1" />
<path fill-rule="evenodd" d="M189.4,126.3h23.1V99.9H189.4v26.4Z" class="g5_1" />
<path fill-rule="evenodd" d="M212.4,126.3h23V99.9h-23v26.4Z" class="g5_1" />
<path fill-rule="evenodd" d="M235.3,126.3h23V99.9h-23v26.4Z" class="g5_1" />
<path fill-rule="evenodd" d="M25.8,771.7h15V755.5h-15v16.2Z" class="g3_1" />
<path d="M27.5,770.9H42.2V756.3H27.5v14.6Z" class="g6_1" />
<path fill-rule="evenodd" d="M25.8,787.7h15V771.5h-15v16.2Z" class="g3_1" />
<path d="M27.5,787H42.2V772.3H27.5V787Z" class="g6_1" />
<path fill-rule="evenodd" d="M25.8,803.9h15V787.7h-15v16.2Z" class="g3_1" />
<path d="M27.5,803.2H42.2V788.5H27.5v14.7Z" class="g6_1" />
</svg>